<svg viewBox="0 0 111 90" fill="currentColor" xmlns="http://www.w3.org/2000/svg">  <path d="M43.2815 48.059C44.9815 47.059 43.3815 44.359 41.6815 45.459C39.9815 46.459 41.5815 49.059 43.2815 48.059Z" fill="#FF5722" stroke="#FF5722"></path>  <path d="M43.2815 48.059C44.9815 47.059 43.3815 44.359 41.6815 45.459C39.9815 46.459 41.5815 49.059 43.2815 48.059Z" fill="#FF5722" stroke="#FF5722"></path>  <path d="M38.8811 35.6586C40.5811 34.6586 38.9811 31.9587 37.2811 33.0587C35.5811 33.9587 37.1811 36.6586 38.8811 35.6586Z" fill="#FF5722" stroke="#FF5722"></path>  <path d="M38.8811 35.6586C40.5811 34.6586 38.9811 31.9587 37.2811 33.0587C35.5811 33.9587 37.1811 36.6586 38.8811 35.6586Z" fill="#FF5722" stroke="#FF5722"></path>  <path d="M68.9817 39.4589C70.6817 38.4589 69.0817 35.7589 67.3817 36.8589C65.6817 37.8589 67.2817 40.5589 68.9817 39.4589Z" fill="#FF5722" stroke="#FF5722"></path>  <path d="M68.9817 39.4589C70.6817 38.4589 69.0817 35.7589 67.3817 36.8589C65.6817 37.8589 67.2817 40.5589 68.9817 39.4589Z" fill="#FF5722" stroke="#FF5722"></path>  <path d="M66.5813 61.9589C68.2813 60.9589 66.6813 58.2589 64.9813 59.3589C63.2813 60.3589 64.8813 62.9589 66.5813 61.9589Z" fill="#FF5722" stroke="#FF5722"></path>  <path d="M66.5813 61.9589C68.2813 60.9589 66.6813 58.2589 64.9813 59.3589C63.2813 60.3589 64.8813 62.9589 66.5813 61.9589Z" fill="#FF5722" stroke="#FF5722"></path>  <path d="M57.6809 39.4589C59.3809 38.4589 57.7809 35.7589 56.0809 36.8589C54.3809 37.8589 55.9809 40.4589 57.6809 39.4589Z" fill="#FF5722" stroke="#FF5722"></path>  <path d="M57.6809 39.4589C59.3809 38.4589 57.7809 35.7589 56.0809 36.8589C54.3809 37.8589 55.9809 40.4589 57.6809 39.4589Z" fill="#FF5722" stroke="#FF5722"></path>  <path d="M76.8809 31.4589C78.5809 30.4589 76.9809 27.7589 75.2809 28.8589C73.6809 29.8589 75.1809 32.4589 76.8809 31.4589Z" fill="#FF5722" stroke="#FF5722"></path>  <path d="M76.8809 31.4589C78.5809 30.4589 76.9809 27.7589 75.2809 28.8589C73.6809 29.8589 75.1809 32.4589 76.8809 31.4589Z" fill="#FF5722" stroke="#FF5722"></path>  <path d="M100.881 56.559C102.581 55.559 100.981 52.859 99.2811 53.959C97.5811 54.959 99.1811 57.559 100.881 56.559Z" fill="#FF5722" stroke="#FF5722"></path>  <path d="M100.881 56.559C102.581 55.559 100.981 52.859 99.2811 53.959C97.5811 54.959 99.1811 57.559 100.881 56.559Z" fill="#FF5722" stroke="#FF5722"></path>  <path d="M109.881 30.1586C111.581 29.1586 109.981 26.4587 108.281 27.5587C106.681 28.4587 108.181 31.1586 109.881 30.1586Z" fill="#FF5722" stroke="#FF5722"></path>  <path d="M109.881 30.1586C111.581 29.1586 109.981 26.4587 108.281 27.5587C106.681 28.4587 108.181 31.1586 109.881 30.1586Z" fill="#FF5722" stroke="#FF5722"></path>  <path d="M94.4817 44.559C96.1817 43.559 94.5817 40.859 92.8817 41.959C91.1817 42.959 92.7817 45.559 94.4817 44.559Z" fill="#FF5722" stroke="#FF5722"></path>  <path d="M94.4817 44.559C96.1817 43.559 94.5817 40.859 92.8817 41.959C91.1817 42.959 92.7817 45.559 94.4817 44.559Z" fill="#FF5722" stroke="#FF5722"></path>  <path d="M79.3811 55.7588C81.0811 54.7588 79.4811 52.0587 77.7811 53.1587C76.0811 54.1587 77.6811 56.8588 79.3811 55.7588Z" fill="#FF5722" stroke="#FF5722"></path>  <path d="M79.3811 55.7588C81.0811 54.7588 79.4811 52.0587 77.7811 53.1587C76.0811 54.1587 77.6811 56.8588 79.3811 55.7588Z" fill="#FF5722" stroke="#FF5722"></path>  <path d="M84.5813 39.2588C86.2813 38.2588 84.6813 35.5587 82.9813 36.6587C81.2813 37.5587 82.8813 40.2588 84.5813 39.2588Z" fill="#FF5722" stroke="#FF5722"></path>  <path d="M84.5813 39.2588C86.2813 38.2588 84.6813 35.5587 82.9813 36.6587C81.2813 37.5587 82.8813 40.2588 84.5813 39.2588Z" fill="#FF5722" stroke="#FF5722"></path>  <path d="M58.881 51.559C60.581 50.559 58.981 47.859 57.281 48.959C55.581 49.859 57.081 52.559 58.881 51.559Z" fill="#FF5722" stroke="#FF5722"></path>  <path d="M58.881 51.559C60.581 50.559 58.981 47.859 57.281 48.959C55.581 49.859 57.081 52.559 58.881 51.559Z" fill="#FF5722" stroke="#FF5722"></path>  <path d="M51.8811 27.1586C53.5811 26.1586 51.9811 23.4587 50.2811 24.5587C48.5811 25.5587 50.1811 28.1586 51.8811 27.1586Z" fill="#FF5722" stroke="#FF5722"></path>  <path d="M51.8811 27.1586C53.5811 26.1586 51.9811 23.4587 50.2811 24.5587C48.5811 25.5587 50.1811 28.1586 51.8811 27.1586Z" fill="#FF5722" stroke="#FF5722"></path>  <path d="M72.8809 14.6586C74.5809 13.6586 72.9809 10.9587 71.2809 12.0587C69.6809 12.9587 71.1809 15.6586 72.8809 14.6586Z" fill="#FF5722" stroke="#FF5722"></path>  <path d="M72.8809 14.6586C74.5809 13.6586 72.9809 10.9587 71.2809 12.0587C69.6809 12.9587 71.1809 15.6586 72.8809 14.6586Z" fill="#FF5722" stroke="#FF5722"></path>  <path d="M96.0813 6.85885C97.7813 5.85885 96.1813 3.15885 94.4813 4.25885C92.7813 5.25885 94.3813 7.85885 96.0813 6.85885Z" fill="#FF5722" stroke="#FF5722"></path>  <path d="M96.0813 6.85885C97.7813 5.85885 96.1813 3.15885 94.4813 4.25885C92.7813 5.25885 94.3813 7.85885 96.0813 6.85885Z" fill="#FF5722" stroke="#FF5722"></path>  <path d="M91.0811 30.059C92.7811 29.059 91.1811 26.359 89.4811 27.459C87.8811 28.459 89.3811 31.059 91.0811 30.059Z" fill="#FF5722" stroke="#FF5722"></path>  <path d="M91.0811 30.059C92.7811 29.059 91.1811 26.359 89.4811 27.459C87.8811 28.459 89.3811 31.059 91.0811 30.059Z" fill="#FF5722" stroke="#FF5722"></path>  <path d="M64.5813 30.8589C66.2813 29.8589 64.6813 27.1588 62.9813 28.2588C61.2813 29.2588 62.8813 31.8589 64.5813 30.8589Z" fill="#FF5722" stroke="#FF5722"></path>  <path d="M64.5813 30.8589C66.2813 29.8589 64.6813 27.1588 62.9813 28.2588C61.2813 29.2588 62.8813 31.8589 64.5813 30.8589Z" fill="#FF5722" stroke="#FF5722"></path>  <path d="M26.5812 17.4589C28.2812 16.4589 26.6812 13.7589 24.9812 14.8589C23.2812 15.7589 24.7812 18.4589 26.5812 17.4589Z" fill="#FF5722" stroke="#FF5722"></path>  <path d="M26.5812 17.4589C28.2812 16.4589 26.6812 13.7589 24.9812 14.8589C23.2812 15.7589 24.7812 18.4589 26.5812 17.4589Z" fill="#FF5722" stroke="#FF5722"></path>  <path d="M52.3811 2.85885C54.0811 1.85885 52.4811 -0.841154 50.7811 0.258846C49.0811 1.15885 50.6811 3.85885 52.3811 2.85885Z" fill="#FF5722" stroke="#FF5722"></path>  <path d="M52.3811 2.85885C54.0811 1.85885 52.4811 -0.841154 50.7811 0.258846C49.0811 1.15885 50.6811 3.85885 52.3811 2.85885Z" fill="#FF5722" stroke="#FF5722"></path>  <path d="M89.2815 18.1586C90.9815 17.1586 89.3815 14.4587 87.6815 15.5587C85.9815 16.4587 87.5815 19.1586 89.2815 18.1586Z" fill="#FF5722" stroke="#FF5722"></path>  <path d="M89.2815 18.1586C90.9815 17.1586 89.3815 14.4587 87.6815 15.5587C85.9815 16.4587 87.5815 19.1586 89.2815 18.1586Z" fill="#FF5722" stroke="#FF5722"></path>  <path d="M50.9817 15.6586C52.6817 14.6586 51.0817 11.9587 49.3817 13.0587C47.6817 14.0587 49.2817 16.6586 50.9817 15.6586Z" fill="#FF5722" stroke="#FF5722"></path>  <path d="M50.9817 15.6586C52.6817 14.6586 51.0817 11.9587 49.3817 13.0587C47.6817 14.0587 49.2817 16.6586 50.9817 15.6586Z" fill="#FF5722" stroke="#FF5722"></path>  <path d="M40.4815 6.85885C42.1815 5.85885 40.5815 3.15885 38.8815 4.25885C37.2815 5.25885 38.7815 7.85885 40.4815 6.85885Z" fill="#FF5722" stroke="#FF5722"></path>  <path d="M40.4815 6.85885C42.1815 5.85885 40.5815 3.15885 38.8815 4.25885C37.2815 5.25885 38.7815 7.85885 40.4815 6.85885Z" fill="#FF5722" stroke="#FF5722"></path>  <path d="M40.8811 17.6586C42.5811 16.6586 40.9811 13.9587 39.2811 15.0587C37.5811 15.9587 39.1811 18.6586 40.8811 17.6586Z" fill="#FF5722" stroke="#FF5722"></path>  <path d="M40.8811 17.6586C42.5811 16.6586 40.9811 13.9587 39.2811 15.0587C37.5811 15.9587 39.1811 18.6586 40.8811 17.6586Z" fill="#FF5722" stroke="#FF5722"></path>  <path d="M33.9817 50.059C35.6817 49.059 34.0817 46.359 32.3817 47.459C30.6817 48.459 32.2817 51.159 33.9817 50.059Z" fill="#FF5722" stroke="#FF5722"></path>  <path d="M33.9817 50.059C35.6817 49.059 34.0817 46.359 32.3817 47.459C30.6817 48.459 32.2817 51.159 33.9817 50.059Z" fill="#FF5722" stroke="#FF5722"></path>  <path d="M42.8811 86.559C44.5811 85.559 42.9811 82.859 41.2811 83.959C39.5811 84.959 41.1811 87.559 42.8811 86.559Z" fill="#FF5722" stroke="#FF5722"></path>  <path d="M42.8811 86.559C44.5811 85.559 42.9811 82.859 41.2811 83.959C39.5811 84.959 41.1811 87.559 42.8811 86.559Z" fill="#FF5722" stroke="#FF5722"></path>  <path d="M14.4816 89.2588C16.1816 88.2588 14.5816 85.5587 12.8816 86.6587C11.1816 87.5587 12.6816 90.2588 14.4816 89.2588Z" fill="#FF5722" stroke="#FF5722"></path>  <path d="M14.4816 89.2588C16.1816 88.2588 14.5816 85.5587 12.8816 86.6587C11.1816 87.5587 12.6816 90.2588 14.4816 89.2588Z" fill="#FF5722" stroke="#FF5722"></path>  <path d="M31.3809 72.3589C33.0809 71.3589 31.4809 68.6588 29.7809 69.7588C28.1809 70.7588 29.6809 73.3589 31.3809 72.3589Z" fill="#FF5722" stroke="#FF5722"></path>  <path d="M31.3809 72.3589C33.0809 71.3589 31.4809 68.6588 29.7809 69.7588C28.1809 70.7588 29.6809 73.3589 31.3809 72.3589Z" fill="#FF5722" stroke="#FF5722"></path>  <path d="M44.6817 68.1586C46.3817 67.1586 44.7817 64.4587 43.0817 65.5587C41.4817 66.5587 42.9817 69.1586 44.6817 68.1586Z" fill="#FF5722" stroke="#FF5722"></path>  <path d="M44.6817 68.1586C46.3817 67.1586 44.7817 64.4587 43.0817 65.5587C41.4817 66.5587 42.9817 69.1586 44.6817 68.1586Z" fill="#FF5722" stroke="#FF5722"></path>  <path d="M67.1809 78.1586C68.8809 77.1586 67.2809 74.4587 65.5809 75.5587C63.8809 76.4587 65.4809 79.1586 67.1809 78.1586Z" fill="#FF5722" stroke="#FF5722"></path>  <path d="M67.1809 78.1586C68.8809 77.1586 67.2809 74.4587 65.5809 75.5587C63.8809 76.4587 65.4809 79.1586 67.1809 78.1586Z" fill="#FF5722" stroke="#FF5722"></path>  <path d="M52.2815 60.6586C53.9815 59.6586 52.3815 56.9587 50.6815 58.0587C48.9815 59.0587 50.5815 61.6586 52.2815 60.6586Z" fill="#FF5722" stroke="#FF5722"></path>  <path d="M52.2815 60.6586C53.9815 59.6586 52.3815 56.9587 50.6815 58.0587C48.9815 59.0587 50.5815 61.6586 52.2815 60.6586Z" fill="#FF5722" stroke="#FF5722"></path>  <path d="M30.3811 61.7588C32.0811 60.7588 30.4811 58.0587 28.7811 59.1587C27.0811 60.0587 28.6811 62.7588 30.3811 61.7588Z" fill="#FF5722" stroke="#FF5722"></path>  <path d="M30.3811 61.7588C32.0811 60.7588 30.4811 58.0587 28.7811 59.1587C27.0811 60.0587 28.6811 62.7588 30.3811 61.7588Z" fill="#FF5722" stroke="#FF5722"></path>  <path d="M9.58128 30.559C11.2813 29.559 9.68128 26.859 7.98128 27.959C6.28128 28.959 7.88128 31.559 9.58128 30.559Z" fill="#FF5722" stroke="#FF5722"></path>  <path d="M9.58128 30.559C11.2813 29.559 9.68128 26.859 7.98128 27.959C6.28128 28.959 7.88128 31.559 9.58128 30.559Z" fill="#FF5722" stroke="#FF5722"></path>  <path d="M2.28131 46.1586C3.98131 45.1586 2.3813 42.4587 0.681299 43.5587C-0.918701 44.4587 0.581305 47.1586 2.28131 46.1586Z" fill="#FF5722" stroke="#FF5722"></path>  <path d="M2.28131 46.1586C3.98131 45.1586 2.3813 42.4587 0.681299 43.5587C-0.918701 44.4587 0.581305 47.1586 2.28131 46.1586Z" fill="#FF5722" stroke="#FF5722"></path>  <path d="M18.0813 46.059C19.7813 45.059 18.1813 42.359 16.4813 43.459C14.7813 44.459 16.3813 47.059 18.0813 46.059Z" fill="#FF5722" stroke="#FF5722"></path>  <path d="M18.0813 46.059C19.7813 45.059 18.1813 42.359 16.4813 43.459C14.7813 44.459 16.3813 47.059 18.0813 46.059Z" fill="#FF5722" stroke="#FF5722"></path>  <path d="M12.6809 67.2588C14.3809 66.2588 12.7809 63.5587 11.0809 64.6587C9.38089 65.6587 10.9809 68.2588 12.6809 67.2588Z" fill="#FF5722" stroke="#FF5722"></path>  <path d="M12.6809 67.2588C14.3809 66.2588 12.7809 63.5587 11.0809 64.6587C9.38089 65.6587 10.9809 68.2588 12.6809 67.2588Z" fill="#FF5722" stroke="#FF5722"></path>  <path d="M27.4817 30.3589C29.1817 29.3589 27.5817 26.6588 25.8817 27.7588C24.1817 28.7588 25.7817 31.3589 27.4817 30.3589Z" fill="#FF5722" stroke="#FF5722"></path>  <path d="M27.4817 30.3589C29.1817 29.3589 27.5817 26.6588 25.8817 27.7588C24.1817 28.7588 25.7817 31.3589 27.4817 30.3589Z" fill="#FF5722" stroke="#FF5722"></path>  <path d="M7.18088 10.1586C8.88088 9.15863 7.28089 6.45865 5.58089 7.55865C3.88089 8.55865 5.48088 11.1586 7.18088 10.1586Z" fill="#FF5722" stroke="#FF5722"></path>  <path d="M7.18088 10.1586C8.88088 9.15863 7.28089 6.45865 5.58089 7.55865C3.88089 8.55865 5.48088 11.1586 7.18088 10.1586Z" fill="#FF5722" stroke="#FF5722"></path>  <path d="M26.1809 4.15863C27.8809 3.15863 26.2809 0.458653 24.5809 1.55865C22.8809 2.55865 24.4809 5.15863 26.1809 4.15863Z" fill="#FF5722" stroke="#FF5722"></path>  <path d="M26.1809 4.15863C27.8809 3.15863 26.2809 0.458653 24.5809 1.55865C22.8809 2.55865 24.4809 5.15863 26.1809 4.15863Z" fill="#FF5722" stroke="#FF5722"></path></svg>